<?xml version="1.0" standalone="no"?><!-- Generator: Gravit.io --><svg xmlns="http://www.w3.org/2000/svg" xmlns:xlink="http://www.w3.org/1999/xlink" style="isolation:isolate" viewBox="704.901 324.391 48 65.609" width="48" height="65.609"><g id="Group"><g id="Group"><path d=" M 749.485 345.432 C 749.485 335.486 740.267 327.405 728.923 327.405 C 717.578 327.405 708.382 335.486 708.382 345.432 C 708.382 354.097 724.002 378.152 728.944 385.536 C 733.864 378.152 749.485 354.097 749.485 345.432 L 749.485 345.432 Z  M 713.259 346.129 C 713.259 338.557 720.285 332.397 728.923 332.397 C 737.56 332.397 744.586 338.557 744.586 346.129 C 744.586 353.701 737.56 359.861 728.923 359.861 C 720.285 359.861 713.259 353.701 713.259 346.129 L 713.259 346.129 Z " fill="rgb(0,165,184)"/><path d=" M 728.923 390 C 729.524 390 730.083 389.717 730.384 389.265 C 731.308 387.928 752.901 356.508 752.901 345.432 C 752.901 333.829 742.137 324.391 728.901 324.391 C 715.666 324.391 704.901 333.829 704.901 345.432 C 704.901 356.508 726.495 387.928 727.419 389.265 C 727.762 389.717 728.321 390 728.923 390 L 728.923 390 Z  M 728.923 327.405 C 740.267 327.405 749.485 335.486 749.485 345.432 C 749.485 354.097 733.864 378.152 728.923 385.536 C 724.002 378.152 708.382 354.097 708.382 345.432 C 708.382 335.486 717.599 327.405 728.923 327.405 Z  M 744.607 346.129 C 744.607 338.557 737.581 332.397 728.944 332.397 C 720.307 332.397 713.281 338.557 713.281 346.129 C 713.281 353.701 720.307 359.861 728.944 359.861 C 737.581 359.861 744.607 353.701 744.607 346.129 Z  M 716.697 346.129 C 716.697 340.214 722.176 335.411 728.923 335.411 C 735.669 335.411 741.148 340.214 741.148 346.129 C 741.148 352.044 735.669 356.847 728.923 356.847 C 722.176 356.847 716.697 352.044 716.697 346.129 Z " fill="rgb(10,11,12)"/></g><path d=" M 728.901 344.865 C 727.831 344.865 726.955 345.681 726.955 346.678 C 726.955 347.675 727.831 348.49 728.901 348.49 C 729.971 348.49 730.847 347.675 730.847 346.678 C 730.847 345.681 729.971 344.865 728.901 344.865 Z  M 734.74 346.678 C 734.74 343.678 732.122 341.241 728.901 341.241 C 725.68 341.241 723.063 343.678 723.063 346.678 C 723.063 348.69 724.24 350.438 725.982 351.381 L 726.955 349.804 C 725.797 349.17 725.009 348.019 725.009 346.678 C 725.009 344.675 726.751 343.053 728.901 343.053 C 731.052 343.053 732.793 344.675 732.793 346.678 C 732.793 348.019 732.005 349.17 730.847 349.804 L 731.82 351.381 C 733.562 350.438 734.74 348.69 734.74 346.678 Z  M 728.901 337.616 C 723.53 337.616 719.17 341.676 719.17 346.678 C 719.17 350.031 721.126 352.949 724.026 354.516 L 724.999 352.949 C 722.683 351.689 721.116 349.36 721.116 346.678 C 721.116 342.672 724.6 339.428 728.901 339.428 C 733.202 339.428 736.686 342.672 736.686 346.678 C 736.686 349.36 735.119 351.689 732.793 352.949 L 733.766 354.516 C 736.676 352.949 738.632 350.031 738.632 346.678 C 738.632 341.676 734.272 337.616 728.901 337.616 Z " fill="rgb(0,0,0)"/></g></svg>