<?xml version="1.0" standalone="no"?><!-- Generator: Gravit.io --><svg xmlns="http://www.w3.org/2000/svg" xmlns:xlink="http://www.w3.org/1999/xlink" style="isolation:isolate" viewBox="1046 32 393 754.998" width="393" height="754.998"><path d=" M 1435.321 749.427 L 1435.321 173.934 L 1438.383 173.934 C 1438.724 173.934 1439 173.663 1439 173.341 L 1439 126.222 C 1439 125.894 1438.724 125.629 1438.383 125.629 L 1435.321 125.629 L 1435.321 69.57 L 1435.315 69.57 C 1435.327 69.38 1435.327 69.185 1435.314 68.988 C 1435.314 68.988 1435.614 60.036 1430.136 53.912 C 1424.658 47.788 1419.778 46.707 1419.778 46.707 C 1417.299 45.648 1413.096 44.436 1410.458 43.855 C 1410.458 43.855 1402.715 41.836 1380.637 38.948 C 1367.502 37.229 1346.847 35.412 1334.798 34.793 C 1321.295 34.1 1303.416 32.789 1286.173 32.316 C 1266.652 31.78 1248.508 32.063 1242.807 32.177 C 1237.105 32.063 1218.961 31.78 1199.44 32.316 C 1182.198 32.789 1164.318 34.1 1150.815 34.793 C 1138.766 35.412 1118.111 37.229 1104.976 38.948 C 1082.898 41.836 1075.155 43.855 1075.155 43.855 C 1072.517 44.436 1068.314 45.648 1065.835 46.707 C 1065.835 46.707 1060.955 47.788 1055.477 53.912 C 1049.999 60.036 1050.299 68.988 1050.299 68.988 C 1050.286 69.185 1050.286 69.38 1050.292 69.57 L 1050.292 175.724 L 1046.617 175.724 C 1046.276 175.724 1046 175.985 1046 176.32 L 1046 293.804 C 1046 294.133 1046.276 294.4 1046.617 294.4 L 1050.292 294.4 L 1050.292 749.427 C 1050.286 749.618 1050.286 749.813 1050.299 750.01 C 1050.299 750.01 1049.999 758.962 1055.477 765.086 C 1060.955 771.21 1065.835 772.291 1065.835 772.291 C 1068.314 773.35 1072.517 774.562 1075.155 775.143 C 1075.155 775.143 1082.898 777.162 1104.976 780.05 C 1118.111 781.769 1138.766 783.586 1150.815 784.205 C 1164.318 784.898 1182.198 786.209 1199.44 786.682 C 1218.961 787.218 1237.105 786.935 1242.807 786.821 C 1248.508 786.935 1266.652 787.218 1286.173 786.682 C 1303.416 786.209 1321.295 784.898 1334.798 784.205 C 1346.847 783.586 1367.502 781.769 1380.637 780.05 C 1402.715 777.162 1410.458 775.143 1410.458 775.143 C 1413.096 774.562 1417.299 773.35 1419.778 772.291 C 1419.778 772.291 1424.658 771.21 1430.136 765.086 C 1435.614 758.962 1435.314 750.01 1435.314 750.01 C 1435.327 749.813 1435.327 749.618 1435.315 749.427 L 1435.321 749.427 L 1435.321 749.427 Z  M 1242.807 75.534 C 1247.547 75.534 1251.39 71.796 1251.39 67.185 C 1251.39 62.574 1247.547 58.836 1242.807 58.836 C 1238.066 58.836 1234.223 62.574 1234.223 67.185 C 1234.223 71.796 1238.066 75.534 1242.807 75.534 L 1242.807 75.534 Z  M 1066.846 97.6 L 1066.846 703.507 L 1418.768 703.507 L 1418.768 97.6 L 1066.846 97.6 L 1066.846 97.6 Z  M 1111.296 75.534 C 1113.158 75.534 1114.668 74.066 1114.668 72.254 C 1114.668 70.443 1113.158 68.974 1111.296 68.974 C 1109.433 68.974 1107.924 70.443 1107.924 72.254 C 1107.924 74.066 1109.433 75.534 1111.296 75.534 L 1111.296 75.534 Z " fill-rule="evenodd" fill="rgb(0,0,0)"/></svg>