<?xml version="1.0" standalone="no"?><!-- Generator: Gravit.io --><svg xmlns="http://www.w3.org/2000/svg" xmlns:xlink="http://www.w3.org/1999/xlink" style="isolation:isolate" viewBox="1550.5 -362 641 1265.998" width="641" height="1265.998"><path d=" M 2185.5 840.998897 L 2185.5 -124.001103 L 2190.493155 -124.001103 C 2191.04922 -124.001103 2191.5 -124.456634 2191.5 -124.996019 L 2191.5 -204.006187 C 2191.5 -204.555664 2191.050051 -205.001103 2190.493155 -205.001103 L 2185.5 -205.001103 L 2185.5 -299.001103 L 2185.489317 -299.001103 C 2185.508823 -299.321129 2185.509003 -299.647009 2185.488782 -299.977585 C 2185.488782 -299.977585 2185.976701 -314.988277 2177.042111 -325.257636 C 2168.107519 -335.526994 2160.14855 -337.338491 2160.14855 -337.338491 C 2156.105158 -339.115002 2149.24947 -341.146985 2144.946746 -342.1212 C 2144.946746 -342.1212 2132.317839 -345.506707 2096.307228 -350.350253 C 2074.883635 -353.231797 2041.194654 -356.279094 2021.542222 -357.316488 C 1999.517876 -358.479088 1970.355921 -360.677694 1942.232486 -361.470731 C 1910.392397 -362.368573 1880.798982 -361.894119 1871.5 -361.702758 C 1862.201018 -361.894119 1832.607603 -362.368573 1800.767514 -361.470731 C 1772.644079 -360.677694 1743.482124 -358.479088 1721.457778 -357.316488 C 1701.805346 -356.279094 1668.116365 -353.231797 1646.692772 -350.350253 C 1610.682161 -345.506707 1598.053254 -342.1212 1598.053254 -342.1212 C 1593.75053 -341.146985 1586.894842 -339.115002 1582.85145 -337.338491 C 1582.85145 -337.338491 1574.892481 -335.526994 1565.957889 -325.257636 C 1557.023299 -314.988277 1557.511218 -299.977585 1557.511218 -299.977585 C 1557.490997 -299.647008 1557.491177 -299.321129 1557.5 -299.001103 L 1557.5 -121.001103 L 1551.506845 -121.001103 C 1550.95078 -121.001103 1550.5 -120.562875 1550.5 -120.001181 L 1550.5 76.998975 C 1550.5 77.551217 1550.949949 77.998897 1551.506845 77.998897 L 1557.5 77.998897 L 1557.5 840.998897 C 1557.491177 841.318927 1557.490997 841.644807 1557.511218 841.975377 C 1557.511218 841.975377 1557.023299 856.986067 1565.957889 867.255427 C 1574.892481 877.524787 1582.85145 879.336287 1582.85145 879.336287 C 1586.894842 881.112797 1593.75053 883.144777 1598.053254 884.118997 C 1598.053254 884.118997 1610.682161 887.504497 1646.692772 892.348047 C 1668.116365 895.229587 1701.805346 898.276887 1721.457778 899.314287 C 1743.482124 900.476887 1772.644079 902.675487 1800.767514 903.468527 C 1832.607603 904.366367 1862.201018 903.891917 1871.5 903.700547 C 1880.798981 903.891917 1910.392396 904.366367 1942.232486 903.468527 C 1970.355921 902.675487 1999.517876 900.476887 2021.542222 899.314287 C 2041.194654 898.276887 2074.883635 895.229587 2096.307228 892.348047 C 2132.317839 887.504497 2144.946746 884.118997 2144.946746 884.118997 C 2149.24947 883.144777 2156.105158 881.112797 2160.14855 879.336287 C 2160.14855 879.336287 2168.107519 877.524787 2177.042111 867.255427 C 2185.976701 856.986067 2185.488782 841.975377 2185.488782 841.975377 C 2185.509003 841.644807 2185.508823 841.318927 2185.489317 840.998897 L 2185.5 840.998897 L 2185.5 840.998897 Z  M 1871.5 -289.001103 C 1879.231987 -289.001103 1885.5 -295.269116 1885.5 -303.001103 C 1885.5 -310.73309 1879.231987 -317.001103 1871.5 -317.001103 C 1863.768013 -317.001103 1857.5 -310.73309 1857.5 -303.001103 C 1857.5 -295.269116 1863.768013 -289.001103 1871.5 -289.001103 L 1871.5 -289.001103 Z  M 1584.5 -252.001103 L 1584.5 763.998897 L 2158.5 763.998897 L 2158.5 -252.001103 L 1584.5 -252.001103 L 1584.5 -252.001103 Z  M 1657 -289.001103 C 1660.037566 -289.001103 1662.5 -291.463537 1662.5 -294.501103 C 1662.5 -297.538669 1660.037566 -300.001103 1657 -300.001103 C 1653.962434 -300.001103 1651.5 -297.538669 1651.5 -294.501103 C 1651.5 -291.463537 1653.962434 -289.001103 1657 -289.001103 L 1657 -289.001103 Z " fill-rule="evenodd" fill="rgb(0,0,0)"/></svg>